HIERARCHY
ROOT SpineBase
{
  OFFSET 0.000000 0.000000 0.000000
  CHANNELS 6 Xposition Yposition Zposition Zrotation Xrotation Yrotation
  JOINT SpineMid
  {
    OFFSET 0.000000 34.849389 0.000000
    CHANNELS 3 Zrotation Xrotation Yrotation
    JOINT SpineShoulder
    {
      OFFSET -0.362349 25.777788 -0.837904
      CHANNELS 3 Zrotation Xrotation Yrotation
      JOINT Neck
      {
        OFFSET -0.263094 8.479523 -0.607195
        CHANNELS 3 Zrotation Xrotation Yrotation
        JOINT Head
        {
          OFFSET -2.315728 12.260520 6.200954
          CHANNELS 3 Zrotation Xrotation Yrotation
          End Site
          {
            OFFSET 0 0 0
          }
        }
      }
      JOINT ShoulderLeft
      {
        OFFSET -5.431307 -5.146425 14.707352
        CHANNELS 3 Zrotation Xrotation Yrotation
        JOINT ElbowLeft
        {
          OFFSET 3.985012 -8.544895 -27.347668
          CHANNELS 3 Zrotation Xrotation Yrotation
          JOINT WristLeft
          {
            OFFSET -9.712531 -24.782816 5.971396
            CHANNELS 3 Zrotation Xrotation Yrotation
            JOINT HandLeft
            {
              OFFSET 0.172878 -7.379299 2.906874
              CHANNELS 3 Zrotation Xrotation Yrotation
              JOINT HandTipLeft
              {
                OFFSET -0.855440 -8.488382 2.475474
                CHANNELS 3 Zrotation Xrotation Yrotation
                End Site
                {
                  OFFSET 0 0 0
                }
              }
              JOINT ThumbLeft
              {
                OFFSET -3.045446 4.938762 2.737088
                CHANNELS 3 Zrotation Xrotation Yrotation
                End Site
                {
                  OFFSET 0 0 0
                }
              }
            }
          }
        }
      }
      JOINT ShoulderRight
      {
        OFFSET -1.413466 -4.541891 -15.167463
        CHANNELS 3 Zrotation Xrotation Yrotation
        JOINT ElbowRight
        {
          OFFSET -4.442949 -26.810964 -6.851632
          CHANNELS 3 Zrotation Xrotation Yrotation
          JOINT WristRight
          {
            OFFSET -6.784254 -24.180021 0.872310
            CHANNELS 3 Zrotation Xrotation Yrotation
            JOINT HandRight
            {
              OFFSET -1.030490 -8.864599 2.357158
              CHANNELS 3 Zrotation Xrotation Yrotation
              JOINT HandTipRight
              {
                OFFSET -3.036607 -7.651616 0.558509
                CHANNELS 3 Zrotation Xrotation Yrotation
                End Site
                {
                  OFFSET 0 0 0
                }
              }
              JOINT ThumbRight
              {
                OFFSET 6.501597 0.413209 2.863613
                CHANNELS 3 Zrotation Xrotation Yrotation
                End Site
                {
                  OFFSET 0 0 0
                }
              }
            }
          }
        }
      }
    }
  }
  JOINT HipLeft
  {
    OFFSET -2.379830 -0.210742 2.854535
    CHANNELS 3 Zrotation Xrotation Yrotation
    JOINT KneeLeft
    {
      OFFSET 2.411954 -32.488831 -10.924358
      CHANNELS 3 Zrotation Xrotation Yrotation
      JOINT AnkleLeft
      {
        OFFSET 12.024827 -34.596809 23.454593
        CHANNELS 3 Zrotation Xrotation Yrotation
        JOINT FootLeft
        {
          OFFSET -4.149963 -7.114380 1.110855
          CHANNELS 3 Zrotation Xrotation Yrotation
          End Site
          {
            OFFSET 0 0 0
          }
        }
      }
    }
  }
  JOINT HipRight
  {
    OFFSET -0.344124 2.912276 -9.295083
    CHANNELS 3 Zrotation Xrotation Yrotation
    JOINT KneeRight
    {
      OFFSET 2.969959 -31.266674 -1.867404
      CHANNELS 3 Zrotation Xrotation Yrotation
      JOINT AnkleRight
      {
        OFFSET 7.400123 -34.797804 -1.813335
        CHANNELS 3 Zrotation Xrotation Yrotation
        JOINT FootRight
        {
          OFFSET -10.679077 -4.021579 -3.533424
          CHANNELS 3 Zrotation Xrotation Yrotation
          End Site
          {
            OFFSET 0 0 0
          }
        }
      }
    }
  }
}
MOTION
Frames: 8
Frame Time: 0.033333
83.558057 85.344942 196.847686 -0.000000 0.000000 80.488269 -0.000000 0.000000 -80.488269 -0.000000 0.000000 0.000000 -0.000000 0.000000 0.000000 0.000000 0.000000 0.000000 -0.000000 0.000000 0.000000 -0.000000 0.000000 0.000000 -0.000000 0.000000 0.000000 -0.000000 0.000000 0.000000 0.000000 0.000000 0.000000 0.000000 0.000000 0.000000 -0.000000 0.000000 0.000000 -0.000000 0.000000 0.000000 -0.000000 0.000000 0.000000 -0.000000 0.000000 0.000000 0.000000 0.000000 0.000000 0.000000 0.000000 0.000000 -0.000000 0.000000 -80.488269 -0.000000 0.000000 0.000000 -0.000000 0.000000 0.000000 0.000000 0.000000 0.000000 -0.000000 0.000000 -80.488269 -0.000000 0.000000 0.000000 -0.000000 0.000000 0.000000 0.000000 0.000000 0.000000
83.571039 85.355525 196.852455 -0.013153 0.008364 80.511251 -0.006082 -0.014352 -80.511250 -0.000000 0.000000 0.000000 -0.000000 0.000000 0.000000 0.000000 0.000000 0.000000 -0.000000 0.000000 0.000000 -0.000000 0.000000 0.000000 -0.000000 0.000000 0.000000 -0.000000 0.000000 0.000000 0.000000 0.000000 0.000000 0.000000 0.000000 0.000000 -0.000000 0.000000 0.000000 -0.000000 0.000000 0.000000 -0.000000 0.000000 0.000000 -0.000000 0.000000 0.000000 0.000000 0.000000 0.000000 0.000000 0.000000 0.000000 -0.006082 -0.014352 -80.511250 -0.000000 0.000000 0.000000 2.698282 -0.325694 0.627383 0.000000 0.000000 0.000000 -0.006082 -0.014352 -80.511250 -0.000000 0.000000 0.000000 -4.236596 1.788027 -0.861738 0.000000 0.000000 0.000000
83.585230 85.364677 196.858606 -0.023853 0.014634 80.528800 -0.010509 -0.025936 -80.528799 -0.000000 0.000000 0.000000 -0.000000 0.000000 0.000000 0.000000 0.000000 0.000000 -0.000000 0.000000 0.000000 -0.000000 0.000000 0.000000 -0.000000 0.000000 0.000000 -0.419758 0.744696 -0.195034 0.000000 0.000000 0.000000 0.000000 0.000000 0.000000 -0.000000 0.000000 0.000000 -0.000000 0.000000 0.000000 0.318763 -1.260563 0.234202 -0.436163 0.181684 0.194080 0.000000 0.000000 0.000000 0.000000 0.000000 0.000000 -0.010509 -0.025936 -80.528799 -0.000000 0.000000 0.000000 4.705496 -0.483391 1.061690 0.000000 0.000000 0.000000 -0.010509 -0.025936 -80.528799 -0.000000 0.000000 0.000000 -6.551921 2.792333 -1.272808 0.000000 0.000000 0.000000
83.600631 85.372400 196.866138 -0.032101 0.018808 80.540924 -0.013277 -0.034756 -80.540923 -0.000000 0.000000 0.000000 -0.000000 0.000000 0.000000 0.000000 0.000000 0.000000 -0.000000 0.000000 0.000000 -0.000000 0.000000 0.000000 -0.000000 0.000000 0.000000 -0.595190 1.043504 -0.273906 0.000000 0.000000 0.000000 0.000000 0.000000 0.000000 -0.000000 0.000000 0.000000 -0.000000 0.000000 0.000000 0.494629 -1.648471 0.329191 -0.644069 0.214760 0.246125 0.000000 0.000000 0.000000 0.000000 0.000000 0.000000 -0.013277 -0.034756 -80.540923 -0.000000 0.000000 0.000000 5.974694 -0.486020 1.280706 0.000000 0.000000 0.000000 -0.013277 -0.034756 -80.540923 -0.000000 0.000000 0.000000 -7.515549 3.212038 -1.424257 0.000000 0.000000 0.000000
83.617241 85.378691 196.875053 -0.037896 0.020887 80.547626 -0.014380 -0.040812 -80.547624 -0.000000 0.000000 0.000000 -0.000000 0.000000 0.000000 0.000000 0.000000 0.000000 -0.000000 0.000000 0.000000 -0.000000 0.000000 0.000000 -0.000000 0.000000 0.000000 -0.747324 1.291977 -0.340623 0.000000 0.000000 0.000000 0.000000 0.000000 0.000000 -0.000000 0.000000 0.000000 -0.000000 0.000000 0.000000 0.681039 -1.877035 0.408972 -0.847635 0.200416 0.270794 0.000000 0.000000 0.000000 0.000000 0.000000 0.000000 -0.014380 -0.040812 -80.547624 -0.547573 -0.487744 -0.542414 7.027914 0.207280 1.752914 0.000000 0.000000 0.000000 -0.014380 -0.040812 -80.547624 -0.000000 0.000000 0.000000 -7.338402 3.126568 -1.379419 0.000000 0.000000 0.000000
83.635062 85.383552 196.885349 -0.041239 0.020871 80.548904 -0.013816 -0.044107 -80.548902 -0.000000 0.000000 0.000000 -0.000000 0.000000 0.000000 0.000000 0.000000 0.000000 -0.000000 0.000000 0.000000 -0.000000 0.000000 0.000000 -0.000000 0.000000 0.000000 -0.875953 1.489332 -0.395367 0.000000 0.000000 0.000000 0.000000 0.000000 0.000000 -0.000000 0.000000 0.000000 -0.000000 0.000000 0.000000 0.877870 -1.947264 0.473024 -1.048056 0.134447 0.269000 0.000000 0.000000 0.000000 0.000000 0.000000 0.000000 -0.013816 -0.044107 -80.548902 -0.652531 -0.500445 -0.618560 6.869158 0.512219 1.596975 0.000000 0.000000 0.000000 -0.013816 -0.044107 -80.548902 -0.000000 0.000000 0.000000 -5.979472 2.519891 -1.124688 0.000000 0.000000 0.000000
83.653749 85.386821 196.894727 -0.040883 0.018885 80.548755 -0.011915 -0.043429 -80.548753 -0.000000 0.000000 0.000000 -0.000000 0.000000 0.000000 0.000000 0.000000 0.000000 -0.000000 0.000000 0.000000 -0.000000 0.000000 0.000000 -0.000000 0.000000 0.000000 -0.626221 1.221697 -0.299841 0.000000 0.000000 0.000000 0.000000 0.000000 0.000000 -0.000000 0.000000 0.000000 -0.000000 0.000000 0.000000 1.135555 -1.948065 0.545906 -2.336450 0.836121 -0.118229 0.000000 0.000000 0.000000 0.000000 0.000000 0.000000 -0.011915 -0.043429 -80.548753 -0.740189 -0.415320 -0.648703 4.273054 1.711315 0.399311 0.000000 0.000000 0.000000 -0.011915 -0.043429 -80.548753 -0.000000 0.000000 0.000000 -0.000000 0.000000 0.000000 0.000000 0.000000 0.000000
83.674854 85.388698 196.909118 -0.038610 0.013399 80.540173 -0.006871 -0.040287 -80.540171 -0.000000 0.000000 0.000000 -0.000000 0.000000 0.000000 0.000000 0.000000 0.000000 -0.000000 0.000000 0.000000 -0.000000 0.000000 0.000000 0.523012 -2.023326 0.166680 -2.934703 1.016026 -0.683406 0.000000 0.000000 0.000000 0.000000 0.000000 0.000000 -0.000000 0.000000 0.000000 -0.000000 0.000000 0.000000 1.329435 -1.724618 0.572506 -2.037634 0.838351 -0.210130 0.000000 0.000000 0.000000 0.000000 0.000000 0.000000 -0.006871 -0.040287 -80.540171 -0.825779 -0.286767 -0.662106 7.111260 -0.567873 2.249175 0.000000 0.000000 0.000000 -0.006871 -0.040287 -80.540171 -0.000000 0.000000 0.000000 4.502725 -1.871898 1.232924 0.000000 0.000000 0.000000
